<svg width="235" height="235" viewBox="0 0 235 235" fill="none" xmlns="http://www.w3.org/2000/svg">
<circle cx="117.5" cy="117.5" r="117.5" fill="#E8EFF0"/>
<path d="M74.8874 120.975V108.285H80.4314C81.8234 108.285 82.8974 108.615 83.6534 109.275C84.4214 109.935 84.8054 110.853 84.8054 112.029C84.8054 112.809 84.6314 113.475 84.2834 114.027C83.9474 114.579 83.4614 115.005 82.8254 115.305C82.1894 115.593 81.4394 115.737 80.5754 115.737L80.8274 115.395H81.4394C81.9434 115.395 82.3934 115.527 82.7894 115.791C83.1854 116.055 83.5094 116.457 83.7614 116.997L85.6154 120.975H83.0594L81.1874 116.853C81.0194 116.433 80.7614 116.157 80.4134 116.025C80.0774 115.893 79.6694 115.827 79.1894 115.827H77.2094V120.975H74.8874ZM77.2094 114.117H80.0534C80.8694 114.117 81.4874 113.949 81.9074 113.613C82.3394 113.265 82.5554 112.761 82.5554 112.101C82.5554 111.441 82.3394 110.943 81.9074 110.607C81.4874 110.271 80.8694 110.103 80.0534 110.103H77.2094V114.117ZM91.5096 121.155C89.9856 121.155 88.7916 120.735 87.9276 119.895C87.0636 119.055 86.6316 117.903 86.6316 116.439C86.6316 115.491 86.8176 114.663 87.1896 113.955C87.5616 113.247 88.0776 112.695 88.7376 112.299C89.4096 111.903 90.1896 111.705 91.0776 111.705C91.9536 111.705 92.6856 111.891 93.2736 112.263C93.8616 112.635 94.3056 113.157 94.6056 113.829C94.9176 114.501 95.0736 115.287 95.0736 116.187V116.781H88.4496V115.593H93.4716L93.1656 115.845C93.1656 115.005 92.9856 114.363 92.6256 113.919C92.2776 113.475 91.7676 113.253 91.0956 113.253C90.3516 113.253 89.7756 113.517 89.3676 114.045C88.9716 114.573 88.7736 115.311 88.7736 116.259V116.493C88.7736 117.477 89.0136 118.215 89.4936 118.707C89.9856 119.187 90.6756 119.427 91.5636 119.427C92.0796 119.427 92.5596 119.361 93.0036 119.229C93.4596 119.085 93.8916 118.857 94.2996 118.545L94.9656 120.057C94.5336 120.405 94.0176 120.675 93.4176 120.867C92.8176 121.059 92.1816 121.155 91.5096 121.155ZM100.219 121.155C99.4389 121.155 98.7189 121.065 98.0589 120.885C97.4109 120.693 96.8649 120.429 96.4209 120.093L97.0509 118.581C97.5069 118.893 98.0109 119.133 98.5629 119.301C99.1149 119.469 99.6729 119.553 100.237 119.553C100.837 119.553 101.281 119.451 101.569 119.247C101.869 119.043 102.019 118.767 102.019 118.419C102.019 118.143 101.923 117.927 101.731 117.771C101.551 117.603 101.257 117.477 100.849 117.393L99.0489 117.051C98.2809 116.883 97.6929 116.595 97.2849 116.187C96.8889 115.779 96.6909 115.245 96.6909 114.585C96.6909 114.021 96.8409 113.523 97.1409 113.091C97.4529 112.659 97.8909 112.323 98.4549 112.083C99.0309 111.831 99.7029 111.705 100.471 111.705C101.143 111.705 101.773 111.795 102.361 111.975C102.961 112.155 103.465 112.425 103.873 112.785L103.225 114.243C102.853 113.943 102.427 113.709 101.947 113.541C101.467 113.373 100.999 113.289 100.543 113.289C99.9189 113.289 99.4629 113.403 99.1749 113.631C98.8869 113.847 98.7429 114.129 98.7429 114.477C98.7429 114.741 98.8269 114.963 98.9949 115.143C99.1749 115.311 99.4509 115.437 99.8229 115.521L101.623 115.863C102.427 116.019 103.033 116.295 103.441 116.691C103.861 117.075 104.071 117.603 104.071 118.275C104.071 118.875 103.909 119.391 103.585 119.823C103.261 120.255 102.811 120.585 102.235 120.813C101.659 121.041 100.987 121.155 100.219 121.155ZM109.272 121.155C108.156 121.155 107.322 120.849 106.77 120.237C106.218 119.625 105.942 118.689 105.942 117.429V111.885H108.192V117.411C108.192 118.083 108.33 118.581 108.606 118.905C108.882 119.217 109.302 119.373 109.866 119.373C110.502 119.373 111.018 119.157 111.414 118.725C111.822 118.293 112.026 117.723 112.026 117.015V111.885H114.276V120.975H112.08V119.121H112.332C112.068 119.769 111.666 120.273 111.126 120.633C110.598 120.981 109.98 121.155 109.272 121.155ZM116.719 120.975V114.153C116.719 113.781 116.707 113.403 116.683 113.019C116.659 112.635 116.623 112.257 116.575 111.885H118.753L118.933 113.685H118.717C118.969 113.061 119.353 112.575 119.869 112.227C120.397 111.879 121.021 111.705 121.741 111.705C122.461 111.705 123.055 111.879 123.523 112.227C124.003 112.563 124.339 113.091 124.531 113.811H124.243C124.495 113.163 124.909 112.653 125.485 112.281C126.061 111.897 126.721 111.705 127.465 111.705C128.485 111.705 129.247 112.005 129.751 112.605C130.255 113.205 130.507 114.141 130.507 115.413V120.975H128.257V115.503C128.257 114.783 128.137 114.267 127.897 113.955C127.657 113.631 127.273 113.469 126.745 113.469C126.121 113.469 125.629 113.691 125.269 114.135C124.909 114.567 124.729 115.155 124.729 115.899V120.975H122.479V115.503C122.479 114.783 122.359 114.267 122.119 113.955C121.879 113.631 121.495 113.469 120.967 113.469C120.343 113.469 119.851 113.691 119.491 114.135C119.143 114.567 118.969 115.155 118.969 115.899V120.975H116.719ZM137.301 121.155C135.777 121.155 134.583 120.735 133.719 119.895C132.855 119.055 132.423 117.903 132.423 116.439C132.423 115.491 132.609 114.663 132.981 113.955C133.353 113.247 133.869 112.695 134.529 112.299C135.201 111.903 135.981 111.705 136.869 111.705C137.745 111.705 138.477 111.891 139.065 112.263C139.653 112.635 140.097 113.157 140.397 113.829C140.709 114.501 140.865 115.287 140.865 116.187V116.781H134.241V115.593H139.263L138.957 115.845C138.957 115.005 138.777 114.363 138.417 113.919C138.069 113.475 137.559 113.253 136.887 113.253C136.143 113.253 135.567 113.517 135.159 114.045C134.763 114.573 134.565 115.311 134.565 116.259V116.493C134.565 117.477 134.805 118.215 135.285 118.707C135.777 119.187 136.467 119.427 137.355 119.427C137.871 119.427 138.351 119.361 138.795 119.229C139.251 119.085 139.683 118.857 140.091 118.545L140.757 120.057C140.325 120.405 139.809 120.675 139.209 120.867C138.609 121.059 137.973 121.155 137.301 121.155Z" fill="#242F65"/>
<path d="M162.235 119.467L162.346 109.709L152.592 109.997M161.248 110.828L151.836 120.412" stroke="#FF774C" stroke-width="1.5" stroke-linecap="round" stroke-linejoin="round"/>
<path d="M141.365 22.6972L138.231 36.9443L135.405 36.2979L138.565 22.0508L141.365 22.6972Z" fill="#242F65"/>
<path d="M164.28 45.4515C163.663 45.8393 162.944 46.0203 162.122 46.0203C161.3 46.0203 160.426 45.7618 159.527 45.2705C158.628 44.7792 157.883 44.1845 157.344 43.5122C156.804 42.8141 156.47 42.0642 156.342 41.2627C156.214 40.4353 156.342 39.6337 156.676 38.8321L159.399 40.2801C159.193 40.8231 159.168 41.392 159.348 41.9091C159.527 42.4521 159.913 42.8658 160.504 43.2019C161.043 43.4864 161.531 43.5639 161.968 43.4346C162.405 43.3054 162.738 42.9951 162.97 42.5555C163.175 42.1677 163.252 41.754 163.149 41.3661C163.047 40.9783 162.867 40.6163 162.61 40.2801C162.353 39.944 161.968 39.4786 161.454 38.9614C160.812 38.2633 160.298 37.6427 159.913 37.1256C159.527 36.6085 159.296 35.9879 159.219 35.2898C159.142 34.5916 159.296 33.8418 159.707 33.0402C160.298 31.9284 161.146 31.2561 162.276 31.0492C163.406 30.8424 164.639 31.0751 165.924 31.7732C167.285 32.4972 168.184 33.4022 168.647 34.4882C169.109 35.5742 169.109 36.686 168.621 37.8496L165.872 36.3757C166.052 35.8845 166.052 35.3932 165.898 34.9278C165.744 34.4623 165.384 34.0745 164.845 33.7901C164.383 33.5315 163.92 33.4539 163.509 33.5573C163.098 33.6608 162.738 33.9452 162.507 34.4106C162.302 34.7985 162.25 35.1605 162.353 35.5225C162.456 35.8845 162.61 36.2465 162.893 36.5826C163.149 36.9187 163.535 37.3583 164.023 37.8754C164.691 38.5994 165.205 39.2458 165.59 39.763C165.975 40.2801 166.206 40.9007 166.309 41.6247C166.412 42.3228 166.232 43.0985 165.795 43.9259C165.384 44.5465 164.896 45.0636 164.28 45.4515Z" fill="#242F65"/>
<path d="M188.453 47.9856L179.154 59.1816L176.919 57.294L180.978 52.4329L176.225 48.4251L172.167 53.2862L169.932 51.4245L179.231 40.2285L181.466 42.0902L177.69 46.6151L182.442 50.623L186.218 46.098L188.453 47.9856Z" fill="#242F65"/>
<path d="M201.811 64.8435C201.965 66.1104 201.786 67.3516 201.272 68.541C200.758 69.7304 199.91 70.7647 198.78 71.6179C197.65 72.4712 196.417 73.0142 195.132 73.1694C193.848 73.3504 192.615 73.1694 191.433 72.6781C190.277 72.1609 189.275 71.3852 188.453 70.2734C187.631 69.1874 187.143 67.998 186.989 66.731C186.835 65.464 187.015 64.2229 187.528 63.0335C188.042 61.8441 188.89 60.8098 190.02 59.9307C191.15 59.0774 192.384 58.5602 193.668 58.3793C194.952 58.1983 196.185 58.3793 197.341 58.8705C198.497 59.3618 199.499 60.1634 200.321 61.2752C201.169 62.3871 201.657 63.5765 201.811 64.8435ZM196.417 61.4562C195.723 61.1718 194.978 61.0942 194.182 61.2494C193.385 61.3786 192.615 61.7665 191.844 62.3353C191.073 62.9042 190.508 63.5765 190.149 64.3005C189.789 65.0245 189.661 65.7743 189.738 66.5242C189.815 67.274 190.123 67.998 190.637 68.6703C191.15 69.3425 191.741 69.8338 192.435 70.1183C193.129 70.4027 193.873 70.4802 194.67 70.3251C195.466 70.1958 196.237 69.808 197.008 69.2391C197.778 68.6703 198.343 67.998 198.703 67.274C199.063 66.55 199.191 65.8002 199.114 65.0503C199.037 64.3005 198.729 63.5765 198.215 62.9042C197.727 62.2319 197.11 61.7406 196.417 61.4562Z" fill="#242F65"/>
<path d="M210.879 78.987L203.121 82.4777C202.094 82.9431 201.4 83.5378 201.092 84.2101C200.784 84.9082 200.809 85.6839 201.195 86.5631C201.58 87.4163 202.119 87.9593 202.839 88.192C203.558 88.4247 204.457 88.2955 205.485 87.83L213.243 84.3394L214.424 86.9768L206.666 90.4674C205.433 91.0104 204.303 91.2431 203.25 91.1656C202.196 91.088 201.297 90.726 200.527 90.1054C199.756 89.4849 199.139 88.6575 198.677 87.6232C197.958 86.0201 197.881 84.5204 198.394 83.1499C198.934 81.7537 200.09 80.6677 201.94 79.8403L209.698 76.3496L210.879 78.987Z" fill="#242F65"/>
<path d="M206.255 102.699L207.385 107.483L205.228 108L203.455 100.398L217.584 97.0625L218.252 99.9067L206.255 102.699Z" fill="#242F65"/>
<path d="M210.186 126.564C209.081 125.995 208.182 125.142 207.54 124.03C206.897 122.918 206.538 121.547 206.486 119.97L206.307 114.773L220.795 114.256L220.975 119.453C221.026 121.03 220.769 122.427 220.23 123.59C219.665 124.754 218.868 125.659 217.79 126.305C216.711 126.952 215.478 127.288 214.013 127.339C212.6 127.391 211.316 127.133 210.186 126.564ZM210.417 123.228C211.265 124.056 212.446 124.443 213.911 124.392C215.4 124.34 216.556 123.875 217.327 122.97C218.123 122.09 218.483 120.849 218.432 119.272L218.355 117.255L208.978 117.591L209.055 119.608C209.132 121.185 209.569 122.401 210.417 123.228Z" fill="#242F65"/>
<path d="M205.638 148.181L204.354 152.912L202.222 152.318L204.277 144.768L218.277 148.646L217.507 151.464L205.638 148.181Z" fill="#242F65"/>
<path d="M207.514 174.477C206.461 175.175 205.279 175.563 203.969 175.614C202.685 175.666 201.4 175.382 200.116 174.735C198.831 174.089 197.855 173.21 197.11 172.124C196.391 171.038 195.98 169.848 195.928 168.581C195.851 167.314 196.134 166.047 196.75 164.832C197.367 163.617 198.215 162.66 199.268 161.962C200.321 161.264 201.503 160.876 202.813 160.824C204.123 160.773 205.408 161.057 206.666 161.703C207.925 162.35 208.927 163.229 209.646 164.315C210.366 165.401 210.751 166.59 210.828 167.857C210.879 169.124 210.622 170.391 210.006 171.607C209.415 172.822 208.593 173.779 207.514 174.477ZM208.156 168.116C208.105 167.366 207.848 166.668 207.36 165.996C206.872 165.349 206.204 164.806 205.356 164.367C204.508 163.927 203.661 163.72 202.864 163.72C202.068 163.72 201.349 163.927 200.707 164.315C200.064 164.729 199.551 165.298 199.165 166.073C198.78 166.823 198.626 167.599 198.677 168.349C198.729 169.098 198.985 169.797 199.473 170.469C199.962 171.115 200.629 171.658 201.477 172.098C202.325 172.537 203.173 172.744 203.969 172.744C204.765 172.744 205.485 172.537 206.127 172.15C206.769 171.736 207.257 171.167 207.642 170.391C208.028 169.616 208.208 168.866 208.156 168.116Z" fill="#242F65"/>
<path d="M199.293 188.388L187.99 183.941L194.258 194.387L192.255 196.766L184.445 183.398L186.834 180.528L201.246 185.983L199.293 188.388Z" fill="#242F65"/>
<path d="M181.543 203.255L179.205 200.307L175.198 203.539L173.81 201.781L177.818 198.549L175.377 195.472L170.882 199.092L169.443 197.256L176.2 191.826L185.242 203.255L178.486 208.685L177.047 206.875L181.543 203.255Z" fill="#242F65"/>
<path d="M150.819 223.191L149.971 221.045L153.696 219.545L149.149 208.143L151.847 207.057L156.394 218.46L160.093 216.96L160.941 219.106L150.819 223.191Z" fill="#242F65"/>
<path d="M130.961 227.043C129.78 226.603 128.778 225.879 127.956 224.871C127.134 223.863 126.62 222.647 126.363 221.225C126.132 219.803 126.235 218.484 126.671 217.243C127.108 216.002 127.827 214.994 128.804 214.166C129.78 213.365 130.936 212.822 132.272 212.615C133.607 212.382 134.866 212.486 136.074 212.925C137.255 213.365 138.283 214.089 139.079 215.123C139.901 216.131 140.415 217.373 140.672 218.769C140.903 220.191 140.8 221.51 140.364 222.725C139.927 223.966 139.208 224.975 138.231 225.776C137.255 226.578 136.099 227.095 134.763 227.327C133.428 227.56 132.169 227.483 130.961 227.043ZM136.433 223.759C136.998 223.268 137.409 222.647 137.641 221.872C137.872 221.096 137.923 220.243 137.743 219.286C137.589 218.329 137.255 217.528 136.793 216.881C136.305 216.235 135.714 215.769 135.02 215.485C134.327 215.201 133.556 215.149 132.708 215.304C131.861 215.459 131.167 215.769 130.602 216.261C130.037 216.752 129.626 217.373 129.394 218.148C129.163 218.924 129.112 219.777 129.292 220.734C129.446 221.691 129.78 222.492 130.242 223.139C130.73 223.785 131.321 224.251 132.015 224.535C132.708 224.794 133.479 224.871 134.327 224.716C135.174 224.561 135.868 224.251 136.433 223.759Z" fill="#242F65"/>
<path d="M104.733 215.357L99.9033 214.633L100.212 212.436L107.893 213.573L105.786 228.027L102.909 227.613L104.733 215.357Z" fill="#242F65"/>
<path d="M86.9566 221.589L88.1126 217.994L83.2317 216.391L83.9253 214.271L88.8062 215.874L90.0136 212.125L84.5419 210.341L85.2612 208.117L93.4816 210.832L88.986 224.717L80.7656 222.028L81.4849 219.83L86.9566 221.589Z" fill="#242F65"/>
<path d="M69.4372 203.463L74.4979 206.359L76.8356 204.316L79.5072 205.842L67.7932 215.745L64.916 214.116L67.3564 198.912L70.0281 200.438L69.4372 203.463ZM69.0262 205.79L67.8702 212.203L72.7511 207.884L69.0262 205.79Z" fill="#242F65"/>
<path d="M56.4387 189.81L55.2313 196.326L56.1818 197.179L59.9323 192.913L62.1159 194.852L52.5083 205.79L48.3724 202.092C47.1137 200.954 46.4201 199.791 46.2916 198.601C46.1889 197.386 46.5742 196.274 47.4476 195.266C48.1669 194.439 49.0146 193.947 49.9651 193.792C50.9156 193.637 51.8918 193.844 52.9193 194.439L54.0496 187.664L56.4387 189.81ZM54.846 198.705L53.0734 197.102C51.8404 195.99 50.7358 195.99 49.7596 197.102C49.2972 197.619 49.0917 198.188 49.1174 198.731C49.1688 199.3 49.5027 199.868 50.1449 200.437L51.9431 202.04L54.846 198.705Z" fill="#242F65"/>
<path d="M41.9755 172.512L43.6966 174.865L39.6121 186.009L47.55 180.114L49.2711 182.467L37.5827 191.129L35.8616 188.776L40.0231 177.58L32.0083 183.527L30.2871 181.174L41.9755 172.512Z" fill="#242F65"/>
<path d="M28.592 149.112L30.3388 154.697L33.4214 154.8L34.3462 157.748L19.0614 156.946L18.0596 153.766L30.159 144.328L31.0838 147.276L28.592 149.112ZM26.7424 150.534L21.5276 154.438L28.0011 154.645L26.7424 150.534Z" fill="#242F65"/>
<path d="M21.8869 128.116C22.4777 127.521 23.2227 127.185 24.0961 127.107C25.3035 127.004 26.3054 127.314 27.076 128.064C27.8467 128.814 28.3091 129.978 28.4632 131.529L29.0284 137.76L14.5913 139.105L14.0261 132.977C13.8977 131.503 14.1032 130.34 14.6683 129.512C15.2335 128.659 16.1069 128.193 17.2629 128.064C18.162 127.987 18.9327 128.142 19.5492 128.581C20.1657 128.995 20.6025 129.59 20.8336 130.34C20.9364 129.46 21.296 128.711 21.8869 128.116ZM20.3969 135.64L20.1657 133.029C20.0887 132.305 19.8832 131.762 19.5235 131.426C19.1639 131.089 18.7015 130.934 18.085 130.986C17.4941 131.038 17.0317 131.27 16.7491 131.658C16.4666 132.072 16.3381 132.641 16.4152 133.417L16.6464 136.002L20.3969 135.64ZM25.509 130.598C25.1237 130.21 24.6356 130.055 23.9934 130.107C23.3511 130.159 22.8631 130.417 22.5548 130.883C22.2465 131.348 22.1181 131.943 22.1952 132.718L22.452 135.459L26.4338 135.097L26.1769 132.331C26.0998 131.555 25.8686 130.986 25.509 130.598Z" fill="#242F65"/>
<path d="M15.7469 107.328C16.5176 106.319 17.4938 105.543 18.7011 105.052C19.9085 104.561 21.2186 104.406 22.6315 104.587C24.0444 104.768 25.2775 105.259 26.3307 106.035C27.3839 106.81 28.1546 107.793 28.617 108.982C29.1051 110.172 29.2592 111.439 29.0794 112.783C28.8996 114.128 28.4372 115.317 27.6665 116.352C26.8958 117.36 25.9197 118.136 24.7123 118.627C23.5049 119.118 22.1948 119.273 20.7819 119.092C19.369 118.911 18.136 118.42 17.1084 117.644C16.0552 116.869 15.3102 115.886 14.8221 114.697C14.334 113.507 14.1799 112.24 14.3597 110.896C14.5139 109.525 14.9763 108.336 15.7469 107.328ZM17.2882 113.533C17.5965 114.231 18.0589 114.8 18.7268 115.266C19.3947 115.731 20.2168 116.015 21.1416 116.145C22.092 116.274 22.9398 116.196 23.7104 115.938C24.4811 115.679 25.0719 115.24 25.5343 114.645C25.9967 114.05 26.2793 113.326 26.3821 112.473C26.4848 111.62 26.4078 110.844 26.0995 110.172C25.7912 109.474 25.3288 108.905 24.6609 108.439C23.993 107.974 23.1967 107.69 22.2205 107.56C21.27 107.431 20.4223 107.509 19.6516 107.767C18.881 108.026 18.2901 108.465 17.8277 109.06C17.3653 109.655 17.0827 110.379 16.98 111.232C16.8772 112.085 16.98 112.861 17.2882 113.533Z" fill="#242F65"/>
<path d="M19.0868 90.8553L27.076 93.803C28.155 94.1908 29.0284 94.2684 29.7477 93.984C30.4669 93.6995 30.9807 93.1307 31.289 92.2257C31.5972 91.3466 31.5972 90.5709 31.2376 89.8986C30.878 89.2263 30.1587 88.7092 29.1054 88.2955L21.1162 85.3478L22.1181 82.6328L30.1073 85.5805C31.366 86.0459 32.3422 86.6665 33.0358 87.468C33.7294 88.2696 34.1404 89.1487 34.2689 90.1571C34.3973 91.1397 34.2432 92.174 33.8579 93.2341C33.267 94.8889 32.2908 96.0008 30.955 96.6214C29.6192 97.2419 28.0008 97.2161 26.1255 96.4921L18.085 93.5702L19.0868 90.8553Z" fill="#242F65"/>
<path d="M32.0343 64.6895L33.9866 65.9047L31.8801 69.3437L42.2584 75.8079L40.7427 78.2901L30.3645 71.8259L28.258 75.239L26.3057 74.0238L32.0343 64.6895Z" fill="#242F65"/>
<path d="M54.6143 40.9258L57.0291 51.3461L60.3429 55.2246L58.1337 57.138L54.8199 53.2595L44.9297 49.3034L47.4472 47.1056L53.9208 49.924L52.1225 43.046L54.6143 40.9258Z" fill="#242F65"/>
<path d="M72.3398 30.9722C73.6242 31.0239 74.7802 31.3859 75.8849 32.084C76.9895 32.7822 77.8629 33.7647 78.5308 35.0317C79.1987 36.2987 79.507 37.5915 79.507 38.9102C79.4813 40.2289 79.1216 41.4183 78.4537 42.5043C77.7858 43.5903 76.8353 44.4436 75.6537 45.09C74.4463 45.7364 73.2132 46.0209 71.9545 45.995C70.6957 45.9691 69.514 45.5813 68.4094 44.8832C67.3048 44.185 66.4314 43.1766 65.7635 41.9096C65.0956 40.6426 64.7873 39.3498 64.813 38.057C64.8387 36.7641 65.1983 35.5489 65.8662 34.4887C66.5341 33.4286 67.4846 32.5495 68.6663 31.903C69.8223 31.2566 71.0554 30.9463 72.3398 30.9722ZM68.1782 35.8333C67.7929 36.4797 67.6131 37.2037 67.6131 38.0052C67.6388 38.8068 67.87 39.6601 68.3067 40.5134C68.7434 41.3666 69.3085 42.0131 69.9764 42.4785C70.6443 42.9439 71.3379 43.2025 72.0829 43.2283C72.8279 43.2542 73.5729 43.0732 74.3435 42.6853C75.1142 42.2975 75.6537 41.7545 76.0647 41.1081C76.45 40.4616 76.6298 39.7377 76.6298 38.9361C76.6041 38.1345 76.3729 37.2813 75.9362 36.4538C75.4738 35.6006 74.9344 34.9541 74.2665 34.4629C73.5986 33.9716 72.905 33.7389 72.16 33.713C71.415 33.6872 70.67 33.8682 69.9251 34.256C69.1287 34.6697 68.5636 35.1869 68.1782 35.8333Z" fill="#242F65"/>
<path d="M87.5992 24.1973L89.8084 32.4715C90.1167 33.5833 90.5791 34.3331 91.1956 34.7727C91.8378 35.1864 92.6085 35.2898 93.5076 35.0313C94.4067 34.7986 95.0233 34.3331 95.3572 33.635C95.6912 32.9627 95.7169 32.0577 95.4086 30.9459L93.1737 22.6717L95.9481 21.9219L98.1573 30.1961C98.5169 31.4889 98.5683 32.6783 98.3114 33.6867C98.0802 34.721 97.5921 35.5743 96.8472 36.2465C96.1022 36.9188 95.2031 37.4101 94.1242 37.6945C92.4544 38.16 90.9644 38.0048 89.68 37.2808C88.3956 36.531 87.4964 35.1864 86.9827 33.2472L84.7734 24.973L87.5992 24.1973Z" fill="#242F65"/>
<path d="M117.526 16L119.967 21.2748L125.67 22.2573L121.431 26.2134L122.253 31.9537L117.218 29.1353L112.029 31.6951L113.159 26.0066L109.126 21.8436L114.855 21.1455L117.526 16Z" fill="#F3764F"/>
</svg>
