<svg width="249" height="60" viewBox="0 0 249 60" fill="none" xmlns="http://www.w3.org/2000/svg">
<rect width="248.153" height="60" rx="10" fill="#FF774C"/>
<path d="M39.6472 36V23.31H45.1912C46.5832 23.31 47.6572 23.64 48.4132 24.3C49.1812 24.96 49.5652 25.878 49.5652 27.054C49.5652 27.834 49.3912 28.5 49.0432 29.052C48.7072 29.604 48.2212 30.03 47.5852 30.33C46.9492 30.618 46.1992 30.762 45.3352 30.762L45.5872 30.42H46.1992C46.7032 30.42 47.1532 30.552 47.5492 30.816C47.9452 31.08 48.2692 31.482 48.5212 32.022L50.3752 36H47.8192L45.9472 31.878C45.7792 31.458 45.5212 31.182 45.1732 31.05C44.8372 30.918 44.4292 30.852 43.9492 30.852H41.9692V36H39.6472ZM41.9692 29.142H44.8132C45.6292 29.142 46.2472 28.974 46.6672 28.638C47.0992 28.29 47.3152 27.786 47.3152 27.126C47.3152 26.466 47.0992 25.968 46.6672 25.632C46.2472 25.296 45.6292 25.128 44.8132 25.128H41.9692V29.142ZM56.2693 36.18C54.7453 36.18 53.5513 35.76 52.6873 34.92C51.8233 34.08 51.3913 32.928 51.3913 31.464C51.3913 30.516 51.5773 29.688 51.9493 28.98C52.3213 28.272 52.8373 27.72 53.4973 27.324C54.1693 26.928 54.9493 26.73 55.8373 26.73C56.7133 26.73 57.4453 26.916 58.0333 27.288C58.6213 27.66 59.0653 28.182 59.3653 28.854C59.6773 29.526 59.8333 30.312 59.8333 31.212V31.806H53.2093V30.618H58.2313L57.9253 30.87C57.9253 30.03 57.7453 29.388 57.3853 28.944C57.0373 28.5 56.5273 28.278 55.8553 28.278C55.1113 28.278 54.5353 28.542 54.1273 29.07C53.7313 29.598 53.5333 30.336 53.5333 31.284V31.518C53.5333 32.502 53.7733 33.24 54.2533 33.732C54.7453 34.212 55.4353 34.452 56.3233 34.452C56.8393 34.452 57.3193 34.386 57.7633 34.254C58.2193 34.11 58.6513 33.882 59.0593 33.57L59.7253 35.082C59.2933 35.43 58.7773 35.7 58.1773 35.892C57.5773 36.084 56.9413 36.18 56.2693 36.18ZM65.2486 36.18C64.4566 36.18 63.7606 35.994 63.1606 35.622C62.5606 35.238 62.0926 34.692 61.7566 33.984C61.4206 33.276 61.2526 32.43 61.2526 31.446C61.2526 30.462 61.4206 29.622 61.7566 28.926C62.0926 28.218 62.5606 27.678 63.1606 27.306C63.7606 26.922 64.4566 26.73 65.2486 26.73C66.0166 26.73 66.6886 26.922 67.2646 27.306C67.8526 27.678 68.2426 28.182 68.4346 28.818H68.2366L68.4346 26.91H70.5946C70.5586 27.282 70.5226 27.66 70.4866 28.044C70.4626 28.428 70.4506 28.806 70.4506 29.178V36H68.2186L68.2006 34.128H68.4166C68.2246 34.752 67.8346 35.25 67.2466 35.622C66.6586 35.994 65.9926 36.18 65.2486 36.18ZM65.8786 34.452C66.5866 34.452 67.1566 34.206 67.5886 33.714C68.0206 33.21 68.2366 32.454 68.2366 31.446C68.2366 30.438 68.0206 29.688 67.5886 29.196C67.1566 28.704 66.5866 28.458 65.8786 28.458C65.1706 28.458 64.6006 28.704 64.1686 29.196C63.7366 29.688 63.5206 30.438 63.5206 31.446C63.5206 32.454 63.7306 33.21 64.1506 33.714C64.5826 34.206 65.1586 34.452 65.8786 34.452ZM76.4288 36.18C75.6368 36.18 74.9348 35.994 74.3228 35.622C73.7228 35.238 73.2548 34.692 72.9188 33.984C72.5828 33.276 72.4148 32.43 72.4148 31.446C72.4148 30.462 72.5828 29.622 72.9188 28.926C73.2548 28.218 73.7228 27.678 74.3228 27.306C74.9348 26.922 75.6368 26.73 76.4288 26.73C77.1848 26.73 77.8508 26.916 78.4268 27.288C79.0148 27.648 79.4048 28.14 79.5968 28.764H79.3628V22.752H81.6128V36H79.3988V34.074H79.6148C79.4228 34.722 79.0328 35.238 78.4448 35.622C77.8688 35.994 77.1968 36.18 76.4288 36.18ZM77.0588 34.452C77.7668 34.452 78.3368 34.206 78.7688 33.714C79.2008 33.21 79.4168 32.454 79.4168 31.446C79.4168 30.438 79.2008 29.688 78.7688 29.196C78.3368 28.704 77.7668 28.458 77.0588 28.458C76.3508 28.458 75.7748 28.704 75.3308 29.196C74.8988 29.688 74.6828 30.438 74.6828 31.446C74.6828 32.454 74.8988 33.21 75.3308 33.714C75.7748 34.206 76.3508 34.452 77.0588 34.452ZM95.0863 36.18C93.7663 36.18 92.6323 35.916 91.6843 35.388C90.7483 34.848 90.0283 34.092 89.5243 33.12C89.0203 32.136 88.7683 30.978 88.7683 29.646C88.7683 28.314 89.0203 27.162 89.5243 26.19C90.0283 25.218 90.7483 24.468 91.6843 23.94C92.6323 23.4 93.7663 23.13 95.0863 23.13C95.9743 23.13 96.7723 23.256 97.4803 23.508C98.2003 23.76 98.8183 24.132 99.3343 24.624L98.5783 26.46C98.0143 26.004 97.4683 25.68 96.9403 25.488C96.4243 25.284 95.8303 25.182 95.1583 25.182C93.8743 25.182 92.8903 25.572 92.2063 26.352C91.5343 27.12 91.1983 28.218 91.1983 29.646C91.1983 31.074 91.5343 32.178 92.2063 32.958C92.8903 33.738 93.8743 34.128 95.1583 34.128C95.8303 34.128 96.4243 34.032 96.9403 33.84C97.4683 33.636 98.0143 33.3 98.5783 32.832L99.3343 34.668C98.8183 35.148 98.2003 35.52 97.4803 35.784C96.7723 36.048 95.9743 36.18 95.0863 36.18ZM104.518 36.18C103.726 36.18 103.03 35.994 102.43 35.622C101.83 35.238 101.362 34.692 101.026 33.984C100.69 33.276 100.522 32.43 100.522 31.446C100.522 30.462 100.69 29.622 101.026 28.926C101.362 28.218 101.83 27.678 102.43 27.306C103.03 26.922 103.726 26.73 104.518 26.73C105.286 26.73 105.958 26.922 106.534 27.306C107.122 27.678 107.512 28.182 107.704 28.818H107.506L107.704 26.91H109.864C109.828 27.282 109.792 27.66 109.756 28.044C109.732 28.428 109.72 28.806 109.72 29.178V36H107.488L107.47 34.128H107.686C107.494 34.752 107.104 35.25 106.516 35.622C105.928 35.994 105.262 36.18 104.518 36.18ZM105.148 34.452C105.856 34.452 106.426 34.206 106.858 33.714C107.29 33.21 107.506 32.454 107.506 31.446C107.506 30.438 107.29 29.688 106.858 29.196C106.426 28.704 105.856 28.458 105.148 28.458C104.44 28.458 103.87 28.704 103.438 29.196C103.006 29.688 102.79 30.438 102.79 31.446C102.79 32.454 103 33.21 103.42 33.714C103.852 34.206 104.428 34.452 105.148 34.452ZM115.41 36.18C114.63 36.18 113.91 36.09 113.25 35.91C112.602 35.718 112.056 35.454 111.612 35.118L112.242 33.606C112.698 33.918 113.202 34.158 113.754 34.326C114.306 34.494 114.864 34.578 115.428 34.578C116.028 34.578 116.472 34.476 116.76 34.272C117.06 34.068 117.21 33.792 117.21 33.444C117.21 33.168 117.114 32.952 116.922 32.796C116.742 32.628 116.448 32.502 116.04 32.418L114.24 32.076C113.472 31.908 112.884 31.62 112.476 31.212C112.08 30.804 111.882 30.27 111.882 29.61C111.882 29.046 112.032 28.548 112.332 28.116C112.644 27.684 113.082 27.348 113.646 27.108C114.222 26.856 114.894 26.73 115.662 26.73C116.334 26.73 116.964 26.82 117.552 27C118.152 27.18 118.656 27.45 119.064 27.81L118.416 29.268C118.044 28.968 117.618 28.734 117.138 28.566C116.658 28.398 116.19 28.314 115.734 28.314C115.11 28.314 114.654 28.428 114.366 28.656C114.078 28.872 113.934 29.154 113.934 29.502C113.934 29.766 114.018 29.988 114.186 30.168C114.366 30.336 114.642 30.462 115.014 30.546L116.814 30.888C117.618 31.044 118.224 31.32 118.632 31.716C119.052 32.1 119.262 32.628 119.262 33.3C119.262 33.9 119.1 34.416 118.776 34.848C118.452 35.28 118.002 35.61 117.426 35.838C116.85 36.066 116.178 36.18 115.41 36.18ZM125.58 36.18C124.056 36.18 122.862 35.76 121.998 34.92C121.134 34.08 120.702 32.928 120.702 31.464C120.702 30.516 120.888 29.688 121.26 28.98C121.632 28.272 122.148 27.72 122.808 27.324C123.48 26.928 124.26 26.73 125.148 26.73C126.024 26.73 126.756 26.916 127.344 27.288C127.932 27.66 128.376 28.182 128.676 28.854C128.988 29.526 129.144 30.312 129.144 31.212V31.806H122.52V30.618H127.542L127.236 30.87C127.236 30.03 127.056 29.388 126.696 28.944C126.348 28.5 125.838 28.278 125.166 28.278C124.422 28.278 123.846 28.542 123.438 29.07C123.042 29.598 122.844 30.336 122.844 31.284V31.518C122.844 32.502 123.084 33.24 123.564 33.732C124.056 34.212 124.746 34.452 125.634 34.452C126.15 34.452 126.63 34.386 127.074 34.254C127.53 34.11 127.962 33.882 128.37 33.57L129.036 35.082C128.604 35.43 128.088 35.7 127.488 35.892C126.888 36.084 126.252 36.18 125.58 36.18ZM140.597 36.18C139.577 36.18 138.635 36.054 137.771 35.802C136.919 35.538 136.187 35.178 135.575 34.722L136.295 32.904C136.703 33.192 137.129 33.438 137.573 33.642C138.017 33.834 138.491 33.984 138.995 34.092C139.499 34.188 140.033 34.236 140.597 34.236C141.545 34.236 142.229 34.08 142.649 33.768C143.069 33.456 143.279 33.048 143.279 32.544C143.279 32.1 143.135 31.764 142.847 31.536C142.559 31.296 142.043 31.098 141.299 30.942L139.265 30.528C138.101 30.288 137.231 29.886 136.655 29.322C136.079 28.758 135.791 28.002 135.791 27.054C135.791 26.262 136.001 25.572 136.421 24.984C136.841 24.396 137.429 23.94 138.185 23.616C138.941 23.292 139.823 23.13 140.831 23.13C141.731 23.13 142.565 23.262 143.333 23.526C144.101 23.778 144.743 24.144 145.259 24.624L144.539 26.352C144.023 25.92 143.459 25.602 142.847 25.398C142.235 25.182 141.551 25.074 140.795 25.074C139.943 25.074 139.277 25.242 138.797 25.578C138.329 25.902 138.095 26.352 138.095 26.928C138.095 27.372 138.239 27.726 138.527 27.99C138.827 28.254 139.331 28.458 140.039 28.602L142.055 28.998C143.255 29.238 144.143 29.634 144.719 30.186C145.295 30.726 145.583 31.458 145.583 32.382C145.583 33.138 145.379 33.804 144.971 34.38C144.563 34.944 143.987 35.388 143.243 35.712C142.499 36.024 141.617 36.18 140.597 36.18ZM151.39 36.18C150.31 36.18 149.494 35.898 148.942 35.334C148.39 34.77 148.114 33.924 148.114 32.796V28.602H146.368V26.91H148.114V24.588L150.364 24.012V26.91H152.794V28.602H150.364V32.652C150.364 33.276 150.484 33.714 150.724 33.966C150.964 34.218 151.294 34.344 151.714 34.344C151.942 34.344 152.134 34.326 152.29 34.29C152.458 34.254 152.62 34.206 152.776 34.146V35.928C152.572 36.012 152.344 36.072 152.092 36.108C151.852 36.156 151.618 36.18 151.39 36.18ZM157.599 36.18C156.483 36.18 155.649 35.874 155.097 35.262C154.545 34.65 154.269 33.714 154.269 32.454V26.91H156.519V32.436C156.519 33.108 156.657 33.606 156.933 33.93C157.209 34.242 157.629 34.398 158.193 34.398C158.829 34.398 159.345 34.182 159.741 33.75C160.149 33.318 160.353 32.748 160.353 32.04V26.91H162.603V36H160.407V34.146H160.659C160.395 34.794 159.993 35.298 159.453 35.658C158.925 36.006 158.307 36.18 157.599 36.18ZM168.573 36.18C167.781 36.18 167.079 35.994 166.467 35.622C165.867 35.238 165.399 34.692 165.063 33.984C164.727 33.276 164.559 32.43 164.559 31.446C164.559 30.462 164.727 29.622 165.063 28.926C165.399 28.218 165.867 27.678 166.467 27.306C167.079 26.922 167.781 26.73 168.573 26.73C169.329 26.73 169.995 26.916 170.571 27.288C171.159 27.648 171.549 28.14 171.741 28.764H171.507V22.752H173.757V36H171.543V34.074H171.759C171.567 34.722 171.177 35.238 170.589 35.622C170.013 35.994 169.341 36.18 168.573 36.18ZM169.203 34.452C169.911 34.452 170.481 34.206 170.913 33.714C171.345 33.21 171.561 32.454 171.561 31.446C171.561 30.438 171.345 29.688 170.913 29.196C170.481 28.704 169.911 28.458 169.203 28.458C168.495 28.458 167.919 28.704 167.475 29.196C167.043 29.688 166.827 30.438 166.827 31.446C166.827 32.454 167.043 33.21 167.475 33.714C167.919 34.206 168.495 34.452 169.203 34.452ZM176.027 40.086L175.505 38.304C176.069 38.184 176.543 38.046 176.927 37.89C177.311 37.734 177.629 37.53 177.881 37.278C178.133 37.026 178.343 36.702 178.511 36.306L178.961 35.244L178.907 36.126L174.947 26.91H177.341L180.185 34.002H179.663L182.525 26.91H184.793L180.653 36.504C180.377 37.152 180.077 37.686 179.753 38.106C179.429 38.538 179.081 38.88 178.709 39.132C178.337 39.396 177.929 39.6 177.485 39.744C177.041 39.888 176.555 40.002 176.027 40.086Z" fill="white"/>
<path d="M205.22 33.9062L205.331 24.149L195.578 24.4369M204.233 25.267L194.821 34.8513" stroke="white" stroke-width="1.5" stroke-linecap="round" stroke-linejoin="round"/>
</svg>
