<svg width="166" height="60" viewBox="0 0 166 60" fill="none" xmlns="http://www.w3.org/2000/svg">
<rect width="166" height="60" rx="10" fill="#BBBBBB"/>
<path d="M33.3285 36.18C32.0085 36.18 30.8745 35.916 29.9265 35.388C28.9905 34.848 28.2705 34.092 27.7665 33.12C27.2625 32.136 27.0105 30.978 27.0105 29.646C27.0105 28.314 27.2625 27.162 27.7665 26.19C28.2705 25.218 28.9905 24.468 29.9265 23.94C30.8745 23.4 32.0085 23.13 33.3285 23.13C34.2165 23.13 35.0145 23.256 35.7225 23.508C36.4425 23.76 37.0605 24.132 37.5765 24.624L36.8205 26.46C36.2565 26.004 35.7105 25.68 35.1825 25.488C34.6665 25.284 34.0725 25.182 33.4005 25.182C32.1165 25.182 31.1325 25.572 30.4485 26.352C29.7765 27.12 29.4405 28.218 29.4405 29.646C29.4405 31.074 29.7765 32.178 30.4485 32.958C31.1325 33.738 32.1165 34.128 33.4005 34.128C34.0725 34.128 34.6665 34.032 35.1825 33.84C35.7105 33.636 36.2565 33.3 36.8205 32.832L37.5765 34.668C37.0605 35.148 36.4425 35.52 35.7225 35.784C35.0145 36.048 34.2165 36.18 33.3285 36.18ZM43.038 36.18C42.102 36.18 41.292 35.988 40.608 35.604C39.924 35.22 39.39 34.674 39.006 33.966C38.634 33.258 38.448 32.418 38.448 31.446C38.448 30.474 38.634 29.64 39.006 28.944C39.39 28.236 39.924 27.69 40.608 27.306C41.292 26.922 42.102 26.73 43.038 26.73C43.974 26.73 44.784 26.922 45.468 27.306C46.164 27.69 46.698 28.236 47.07 28.944C47.454 29.64 47.646 30.474 47.646 31.446C47.646 32.418 47.454 33.258 47.07 33.966C46.698 34.674 46.164 35.22 45.468 35.604C44.784 35.988 43.974 36.18 43.038 36.18ZM43.038 34.452C43.746 34.452 44.31 34.206 44.73 33.714C45.15 33.21 45.36 32.454 45.36 31.446C45.36 30.438 45.15 29.688 44.73 29.196C44.31 28.704 43.746 28.458 43.038 28.458C42.33 28.458 41.766 28.704 41.346 29.196C40.926 29.688 40.716 30.438 40.716 31.446C40.716 32.454 40.926 33.21 41.346 33.714C41.766 34.206 42.33 34.452 43.038 34.452ZM49.5863 36V29.178C49.5863 28.806 49.5743 28.428 49.5503 28.044C49.5263 27.66 49.4903 27.282 49.4423 26.91H51.6203L51.8003 28.71H51.5843C51.8363 28.086 52.2203 27.6 52.7363 27.252C53.2643 26.904 53.8883 26.73 54.6083 26.73C55.3283 26.73 55.9223 26.904 56.3903 27.252C56.8703 27.588 57.2063 28.116 57.3983 28.836H57.1103C57.3623 28.188 57.7763 27.678 58.3523 27.306C58.9283 26.922 59.5883 26.73 60.3323 26.73C61.3523 26.73 62.1143 27.03 62.6183 27.63C63.1223 28.23 63.3743 29.166 63.3743 30.438V36H61.1243V30.528C61.1243 29.808 61.0043 29.292 60.7643 28.98C60.5243 28.656 60.1403 28.494 59.6123 28.494C58.9883 28.494 58.4963 28.716 58.1363 29.16C57.7763 29.592 57.5963 30.18 57.5963 30.924V36H55.3463V30.528C55.3463 29.808 55.2263 29.292 54.9863 28.98C54.7463 28.656 54.3623 28.494 53.8343 28.494C53.2103 28.494 52.7183 28.716 52.3583 29.16C52.0103 29.592 51.8363 30.18 51.8363 30.924V36H49.5863ZM65.7758 36V26.91H68.0258V36H65.7758ZM65.6498 25.2V23.004H68.1518V25.2H65.6498ZM70.4691 36V29.178C70.4691 28.806 70.4571 28.428 70.4331 28.044C70.4091 27.66 70.3731 27.282 70.3251 26.91H72.5031L72.6831 28.71H72.4671C72.7551 28.074 73.1811 27.588 73.7451 27.252C74.3091 26.904 74.9631 26.73 75.7071 26.73C76.7751 26.73 77.5791 27.03 78.1191 27.63C78.6591 28.23 78.9291 29.166 78.9291 30.438V36H76.6791V30.546C76.6791 29.814 76.5351 29.292 76.2471 28.98C75.9711 28.656 75.5511 28.494 74.9871 28.494C74.2911 28.494 73.7391 28.71 73.3311 29.142C72.9231 29.574 72.7191 30.15 72.7191 30.87V36H70.4691ZM85.5268 40.032C84.6868 40.032 83.9248 39.942 83.2408 39.762C82.5688 39.582 81.9688 39.306 81.4408 38.934L81.9268 37.314C82.2748 37.542 82.6348 37.728 83.0068 37.872C83.3788 38.016 83.7628 38.124 84.1588 38.196C84.5548 38.268 84.9568 38.304 85.3648 38.304C86.2048 38.304 86.8288 38.094 87.2368 37.674C87.6568 37.266 87.8668 36.678 87.8668 35.91V33.732H88.0468C87.8548 34.356 87.4648 34.854 86.8768 35.226C86.3008 35.598 85.6348 35.784 84.8788 35.784C84.0628 35.784 83.3488 35.604 82.7368 35.244C82.1368 34.872 81.6688 34.344 81.3328 33.66C80.9968 32.976 80.8288 32.172 80.8288 31.248C80.8288 30.324 80.9968 29.526 81.3328 28.854C81.6688 28.17 82.1368 27.648 82.7368 27.288C83.3488 26.916 84.0628 26.73 84.8788 26.73C85.6468 26.73 86.3128 26.916 86.8768 27.288C87.4528 27.648 87.8368 28.14 88.0288 28.764L87.8668 28.656L88.0468 26.91H90.2248C90.1768 27.282 90.1408 27.66 90.1168 28.044C90.0928 28.428 90.0808 28.806 90.0808 29.178V35.64C90.0808 37.068 89.6908 38.154 88.9108 38.898C88.1428 39.654 87.0148 40.032 85.5268 40.032ZM85.4908 34.056C86.2108 34.056 86.7808 33.816 87.2008 33.336C87.6328 32.844 87.8488 32.148 87.8488 31.248C87.8488 30.348 87.6328 29.658 87.2008 29.178C86.7808 28.698 86.2108 28.458 85.4908 28.458C84.7588 28.458 84.1768 28.698 83.7448 29.178C83.3128 29.658 83.0968 30.348 83.0968 31.248C83.0968 32.148 83.3128 32.844 83.7448 33.336C84.1768 33.816 84.7588 34.056 85.4908 34.056ZM102.06 36.18C101.04 36.18 100.098 36.054 99.2335 35.802C98.3815 35.538 97.6495 35.178 97.0375 34.722L97.7575 32.904C98.1655 33.192 98.5915 33.438 99.0355 33.642C99.4795 33.834 99.9535 33.984 100.458 34.092C100.962 34.188 101.496 34.236 102.06 34.236C103.008 34.236 103.692 34.08 104.112 33.768C104.532 33.456 104.742 33.048 104.742 32.544C104.742 32.1 104.598 31.764 104.31 31.536C104.022 31.296 103.506 31.098 102.762 30.942L100.728 30.528C99.5635 30.288 98.6935 29.886 98.1175 29.322C97.5415 28.758 97.2535 28.002 97.2535 27.054C97.2535 26.262 97.4635 25.572 97.8835 24.984C98.3035 24.396 98.8915 23.94 99.6475 23.616C100.404 23.292 101.286 23.13 102.294 23.13C103.194 23.13 104.028 23.262 104.796 23.526C105.564 23.778 106.206 24.144 106.722 24.624L106.002 26.352C105.486 25.92 104.922 25.602 104.31 25.398C103.698 25.182 103.014 25.074 102.258 25.074C101.406 25.074 100.74 25.242 100.26 25.578C99.7915 25.902 99.5575 26.352 99.5575 26.928C99.5575 27.372 99.7015 27.726 99.9895 27.99C100.29 28.254 100.794 28.458 101.502 28.602L103.518 28.998C104.718 29.238 105.606 29.634 106.182 30.186C106.758 30.726 107.046 31.458 107.046 32.382C107.046 33.138 106.842 33.804 106.434 34.38C106.026 34.944 105.45 35.388 104.706 35.712C103.962 36.024 103.08 36.18 102.06 36.18ZM113.157 36.18C112.221 36.18 111.411 35.988 110.727 35.604C110.043 35.22 109.509 34.674 109.125 33.966C108.753 33.258 108.567 32.418 108.567 31.446C108.567 30.474 108.753 29.64 109.125 28.944C109.509 28.236 110.043 27.69 110.727 27.306C111.411 26.922 112.221 26.73 113.157 26.73C114.093 26.73 114.903 26.922 115.587 27.306C116.283 27.69 116.817 28.236 117.189 28.944C117.573 29.64 117.765 30.474 117.765 31.446C117.765 32.418 117.573 33.258 117.189 33.966C116.817 34.674 116.283 35.22 115.587 35.604C114.903 35.988 114.093 36.18 113.157 36.18ZM113.157 34.452C113.865 34.452 114.429 34.206 114.849 33.714C115.269 33.21 115.479 32.454 115.479 31.446C115.479 30.438 115.269 29.688 114.849 29.196C114.429 28.704 113.865 28.458 113.157 28.458C112.449 28.458 111.885 28.704 111.465 29.196C111.045 29.688 110.835 30.438 110.835 31.446C110.835 32.454 111.045 33.21 111.465 33.714C111.885 34.206 112.449 34.452 113.157 34.452ZM123.809 36.18C122.873 36.18 122.063 35.988 121.379 35.604C120.695 35.22 120.161 34.674 119.777 33.966C119.405 33.258 119.219 32.418 119.219 31.446C119.219 30.474 119.405 29.64 119.777 28.944C120.161 28.236 120.695 27.69 121.379 27.306C122.063 26.922 122.873 26.73 123.809 26.73C124.745 26.73 125.555 26.922 126.239 27.306C126.935 27.69 127.469 28.236 127.841 28.944C128.225 29.64 128.417 30.474 128.417 31.446C128.417 32.418 128.225 33.258 127.841 33.966C127.469 34.674 126.935 35.22 126.239 35.604C125.555 35.988 124.745 36.18 123.809 36.18ZM123.809 34.452C124.517 34.452 125.081 34.206 125.501 33.714C125.921 33.21 126.131 32.454 126.131 31.446C126.131 30.438 125.921 29.688 125.501 29.196C125.081 28.704 124.517 28.458 123.809 28.458C123.101 28.458 122.537 28.704 122.117 29.196C121.697 29.688 121.487 30.438 121.487 31.446C121.487 32.454 121.697 33.21 122.117 33.714C122.537 34.206 123.101 34.452 123.809 34.452ZM130.358 36V29.178C130.358 28.806 130.346 28.428 130.322 28.044C130.298 27.66 130.262 27.282 130.214 26.91H132.392L132.572 28.71H132.356C132.644 28.074 133.07 27.588 133.634 27.252C134.198 26.904 134.852 26.73 135.596 26.73C136.664 26.73 137.468 27.03 138.008 27.63C138.548 28.23 138.818 29.166 138.818 30.438V36H136.568V30.546C136.568 29.814 136.424 29.292 136.136 28.98C135.86 28.656 135.44 28.494 134.876 28.494C134.18 28.494 133.628 28.71 133.22 29.142C132.812 29.574 132.608 30.15 132.608 30.87V36H130.358Z" fill="white"/>
</svg>
