<svg width="171" height="45" viewBox="0 0 171 45" fill="none" xmlns="http://www.w3.org/2000/svg">
<rect width="171" height="45" rx="10" fill="#D9DEEE"/>
<path d="M30.7162 29.162C28.9522 29.162 27.6382 28.718 26.7742 27.83C25.9222 26.942 25.4962 25.628 25.4962 23.888V16.31H27.3682V23.852C27.3682 25.076 27.6322 26 28.1602 26.624C28.7002 27.236 29.5522 27.542 30.7162 27.542C31.8202 27.542 32.6542 27.236 33.2182 26.624C33.7822 26 34.0642 25.076 34.0642 23.852V16.31H35.9002V23.888C35.9002 25.628 35.4622 26.942 34.5862 27.83C33.7102 28.718 32.4202 29.162 30.7162 29.162ZM41.7565 29.162C41.0005 29.162 40.3045 29.066 39.6685 28.874C39.0325 28.682 38.5045 28.412 38.0845 28.064L38.6425 26.822C39.0865 27.158 39.5785 27.41 40.1185 27.578C40.6585 27.746 41.2105 27.83 41.7745 27.83C42.4345 27.83 42.9325 27.716 43.2685 27.488C43.6045 27.248 43.7725 26.924 43.7725 26.516C43.7725 26.204 43.6645 25.952 43.4485 25.76C43.2445 25.568 42.9025 25.424 42.4225 25.328L40.6945 24.986C39.9265 24.818 39.3445 24.53 38.9485 24.122C38.5525 23.714 38.3545 23.192 38.3545 22.556C38.3545 22.016 38.4985 21.536 38.7865 21.116C39.0865 20.696 39.5065 20.366 40.0465 20.126C40.5985 19.886 41.2405 19.766 41.9725 19.766C42.6445 19.766 43.2685 19.862 43.8445 20.054C44.4205 20.246 44.9005 20.522 45.2845 20.882L44.7085 22.088C44.3365 21.776 43.9165 21.536 43.4485 21.368C42.9805 21.188 42.5065 21.098 42.0265 21.098C41.3545 21.098 40.8565 21.224 40.5325 21.476C40.2085 21.728 40.0465 22.058 40.0465 22.466C40.0465 22.778 40.1425 23.036 40.3345 23.24C40.5385 23.432 40.8565 23.582 41.2885 23.69L43.0165 24.032C43.8325 24.2 44.4445 24.476 44.8525 24.86C45.2605 25.244 45.4645 25.76 45.4645 26.408C45.4645 26.972 45.3085 27.464 44.9965 27.884C44.6845 28.304 44.2525 28.622 43.7005 28.838C43.1485 29.054 42.5005 29.162 41.7565 29.162ZM51.8014 29.162C50.3374 29.162 49.1854 28.748 48.3454 27.92C47.5054 27.092 47.0854 25.946 47.0854 24.482C47.0854 23.534 47.2654 22.706 47.6254 21.998C47.9974 21.29 48.5074 20.744 49.1554 20.36C49.8154 19.964 50.5774 19.766 51.4414 19.766C52.2934 19.766 53.0074 19.946 53.5834 20.306C54.1594 20.666 54.5974 21.176 54.8974 21.836C55.1974 22.484 55.3474 23.252 55.3474 24.14V24.716H48.5074V23.672H54.1054L53.7994 23.906C53.7994 23.006 53.5954 22.31 53.1874 21.818C52.7914 21.314 52.2154 21.062 51.4594 21.062C50.6194 21.062 49.9714 21.356 49.5154 21.944C49.0594 22.52 48.8314 23.318 48.8314 24.338V24.518C48.8314 25.586 49.0894 26.39 49.6054 26.93C50.1334 27.47 50.8774 27.74 51.8374 27.74C52.3654 27.74 52.8574 27.668 53.3134 27.524C53.7814 27.368 54.2254 27.116 54.6454 26.768L55.2394 28.01C54.8194 28.382 54.3094 28.67 53.7094 28.874C53.1094 29.066 52.4734 29.162 51.8014 29.162ZM57.3976 29V22.178C57.3976 21.806 57.3856 21.434 57.3616 21.062C57.3496 20.678 57.3256 20.3 57.2896 19.928H59.0536L59.2516 22.268H58.9636C59.0836 21.704 59.2876 21.236 59.5756 20.864C59.8636 20.492 60.2116 20.216 60.6196 20.036C61.0396 19.856 61.4776 19.766 61.9336 19.766C62.1256 19.766 62.2876 19.778 62.4196 19.802C62.5516 19.814 62.6836 19.838 62.8156 19.874L62.7976 21.494C62.5936 21.41 62.4136 21.362 62.2576 21.35C62.1136 21.326 61.9336 21.314 61.7176 21.314C61.1896 21.314 60.7396 21.434 60.3676 21.674C59.9956 21.902 59.7136 22.214 59.5216 22.61C59.3296 23.006 59.2336 23.432 59.2336 23.888V29H57.3976ZM69.1795 29V16.31H74.5435C75.8995 16.31 76.9495 16.634 77.6935 17.282C78.4375 17.918 78.8095 18.812 78.8095 19.964C78.8095 20.72 78.6415 21.368 78.3055 21.908C77.9695 22.448 77.4955 22.862 76.8835 23.15C76.2715 23.426 75.5515 23.564 74.7235 23.564L75.0115 23.276H75.4975C75.9895 23.276 76.4275 23.402 76.8115 23.654C77.2075 23.906 77.5315 24.308 77.7835 24.86L79.6015 29H77.5495L75.7495 24.842C75.5695 24.35 75.2875 24.032 74.9035 23.888C74.5315 23.744 74.0695 23.672 73.5175 23.672H71.0515V29H69.1795ZM71.0515 22.25H74.2375C75.1375 22.25 75.8155 22.058 76.2715 21.674C76.7395 21.29 76.9735 20.738 76.9735 20.018C76.9735 19.286 76.7395 18.734 76.2715 18.362C75.8155 17.99 75.1375 17.804 74.2375 17.804H71.0515V22.25ZM85.5514 29.162C84.0874 29.162 82.9354 28.748 82.0954 27.92C81.2554 27.092 80.8354 25.946 80.8354 24.482C80.8354 23.534 81.0154 22.706 81.3754 21.998C81.7474 21.29 82.2574 20.744 82.9054 20.36C83.5654 19.964 84.3274 19.766 85.1914 19.766C86.0434 19.766 86.7574 19.946 87.3334 20.306C87.9094 20.666 88.3474 21.176 88.6474 21.836C88.9474 22.484 89.0974 23.252 89.0974 24.14V24.716H82.2574V23.672H87.8554L87.5494 23.906C87.5494 23.006 87.3454 22.31 86.9374 21.818C86.5414 21.314 85.9654 21.062 85.2094 21.062C84.3694 21.062 83.7214 21.356 83.2654 21.944C82.8094 22.52 82.5814 23.318 82.5814 24.338V24.518C82.5814 25.586 82.8394 26.39 83.3554 26.93C83.8834 27.47 84.6274 27.74 85.5874 27.74C86.1154 27.74 86.6074 27.668 87.0634 27.524C87.5314 27.368 87.9754 27.116 88.3954 26.768L88.9894 28.01C88.5694 28.382 88.0594 28.67 87.4594 28.874C86.8594 29.066 86.2234 29.162 85.5514 29.162ZM94.2976 29.162C93.5416 29.162 92.8456 29.066 92.2096 28.874C91.5736 28.682 91.0456 28.412 90.6256 28.064L91.1836 26.822C91.6276 27.158 92.1196 27.41 92.6596 27.578C93.1996 27.746 93.7516 27.83 94.3156 27.83C94.9756 27.83 95.4736 27.716 95.8096 27.488C96.1456 27.248 96.3136 26.924 96.3136 26.516C96.3136 26.204 96.2056 25.952 95.9896 25.76C95.7856 25.568 95.4436 25.424 94.9636 25.328L93.2356 24.986C92.4676 24.818 91.8856 24.53 91.4896 24.122C91.0936 23.714 90.8956 23.192 90.8956 22.556C90.8956 22.016 91.0396 21.536 91.3276 21.116C91.6276 20.696 92.0476 20.366 92.5876 20.126C93.1396 19.886 93.7816 19.766 94.5136 19.766C95.1856 19.766 95.8096 19.862 96.3856 20.054C96.9616 20.246 97.4416 20.522 97.8256 20.882L97.2496 22.088C96.8776 21.776 96.4576 21.536 95.9896 21.368C95.5216 21.188 95.0476 21.098 94.5676 21.098C93.8956 21.098 93.3976 21.224 93.0736 21.476C92.7496 21.728 92.5876 22.058 92.5876 22.466C92.5876 22.778 92.6836 23.036 92.8756 23.24C93.0796 23.432 93.3976 23.582 93.8296 23.69L95.5576 24.032C96.3736 24.2 96.9856 24.476 97.3936 24.86C97.8016 25.244 98.0056 25.76 98.0056 26.408C98.0056 26.972 97.8496 27.464 97.5376 27.884C97.2256 28.304 96.7936 28.622 96.2416 28.838C95.6896 29.054 95.0416 29.162 94.2976 29.162ZM104.342 29.162C102.878 29.162 101.726 28.748 100.886 27.92C100.046 27.092 99.6264 25.946 99.6264 24.482C99.6264 23.534 99.8064 22.706 100.166 21.998C100.538 21.29 101.048 20.744 101.696 20.36C102.356 19.964 103.118 19.766 103.982 19.766C104.834 19.766 105.548 19.946 106.124 20.306C106.7 20.666 107.138 21.176 107.438 21.836C107.738 22.484 107.888 23.252 107.888 24.14V24.716H101.048V23.672H106.646L106.34 23.906C106.34 23.006 106.136 22.31 105.728 21.818C105.332 21.314 104.756 21.062 104 21.062C103.16 21.062 102.512 21.356 102.056 21.944C101.6 22.52 101.372 23.318 101.372 24.338V24.518C101.372 25.586 101.63 26.39 102.146 26.93C102.674 27.47 103.418 27.74 104.378 27.74C104.906 27.74 105.398 27.668 105.854 27.524C106.322 27.368 106.766 27.116 107.186 26.768L107.78 28.01C107.36 28.382 106.85 28.67 106.25 28.874C105.65 29.066 105.014 29.162 104.342 29.162ZM113.449 29.162C112.645 29.162 111.943 28.976 111.343 28.604C110.743 28.232 110.275 27.692 109.939 26.984C109.615 26.276 109.453 25.436 109.453 24.464C109.453 23.48 109.615 22.64 109.939 21.944C110.275 21.248 110.743 20.714 111.343 20.342C111.943 19.958 112.645 19.766 113.449 19.766C114.241 19.766 114.931 19.964 115.519 20.36C116.107 20.756 116.497 21.296 116.689 21.98H116.491L116.671 19.928H118.435C118.399 20.3 118.363 20.672 118.327 21.044C118.303 21.404 118.291 21.758 118.291 22.106V29H116.473V26.984H116.671C116.479 27.656 116.083 28.19 115.483 28.586C114.895 28.97 114.217 29.162 113.449 29.162ZM113.899 27.74C114.679 27.74 115.303 27.464 115.771 26.912C116.251 26.36 116.491 25.544 116.491 24.464C116.491 23.384 116.251 22.574 115.771 22.034C115.303 21.482 114.679 21.206 113.899 21.206C113.107 21.206 112.471 21.482 111.991 22.034C111.523 22.574 111.289 23.384 111.289 24.464C111.289 25.544 111.523 26.36 111.991 26.912C112.459 27.464 113.095 27.74 113.899 27.74ZM120.907 29V22.178C120.907 21.806 120.895 21.434 120.871 21.062C120.859 20.678 120.835 20.3 120.799 19.928H122.563L122.761 22.268H122.473C122.593 21.704 122.797 21.236 123.085 20.864C123.373 20.492 123.721 20.216 124.129 20.036C124.549 19.856 124.987 19.766 125.443 19.766C125.635 19.766 125.797 19.778 125.929 19.802C126.061 19.814 126.193 19.838 126.325 19.874L126.307 21.494C126.103 21.41 125.923 21.362 125.767 21.35C125.623 21.326 125.443 21.314 125.227 21.314C124.699 21.314 124.249 21.434 123.877 21.674C123.505 21.902 123.223 22.214 123.031 22.61C122.839 23.006 122.743 23.432 122.743 23.888V29H120.907ZM131.583 29.162C130.671 29.162 129.873 28.976 129.189 28.604C128.517 28.22 127.995 27.674 127.623 26.966C127.263 26.246 127.083 25.394 127.083 24.41C127.083 23.438 127.269 22.604 127.641 21.908C128.013 21.212 128.535 20.684 129.207 20.324C129.879 19.952 130.671 19.766 131.583 19.766C132.171 19.766 132.741 19.868 133.293 20.072C133.845 20.264 134.301 20.54 134.661 20.9L134.067 22.178C133.731 21.854 133.353 21.614 132.933 21.458C132.513 21.29 132.105 21.206 131.709 21.206C130.845 21.206 130.167 21.482 129.675 22.034C129.183 22.586 128.937 23.384 128.937 24.428C128.937 25.484 129.183 26.294 129.675 26.858C130.167 27.422 130.845 27.704 131.709 27.704C132.093 27.704 132.495 27.632 132.915 27.488C133.335 27.332 133.719 27.086 134.067 26.75L134.661 28.028C134.289 28.388 133.821 28.67 133.257 28.874C132.705 29.066 132.147 29.162 131.583 29.162ZM136.588 29V15.752H138.406V21.854H138.154C138.418 21.17 138.844 20.654 139.432 20.306C140.02 19.946 140.698 19.766 141.466 19.766C142.546 19.766 143.35 20.066 143.878 20.666C144.406 21.254 144.67 22.148 144.67 23.348V29H142.852V23.456C142.852 22.676 142.696 22.112 142.384 21.764C142.084 21.404 141.604 21.224 140.944 21.224C140.176 21.224 139.558 21.464 139.09 21.944C138.634 22.412 138.406 23.036 138.406 23.816V29H136.588Z" fill="#6878AC"/>
</svg>
