<svg width="124" height="45" viewBox="0 0 124 45" fill="none" xmlns="http://www.w3.org/2000/svg">
<rect width="124" height="45" rx="10" fill="#D9DEEE"/>
<path d="M23.9858 29.162C22.2218 29.162 20.9078 28.718 20.0438 27.83C19.1918 26.942 18.7658 25.628 18.7658 23.888V16.31H20.6378V23.852C20.6378 25.076 20.9018 26 21.4298 26.624C21.9698 27.236 22.8218 27.542 23.9858 27.542C25.0898 27.542 25.9238 27.236 26.4878 26.624C27.0518 26 27.3338 25.076 27.3338 23.852V16.31H29.1698V23.888C29.1698 25.628 28.7318 26.942 27.8558 27.83C26.9798 28.718 25.6898 29.162 23.9858 29.162ZM30.4399 29L35.5879 22.142V22.898L30.6559 16.31H32.8519L36.6679 21.566H36.0919L39.8719 16.31H42.0859L37.1539 22.898V22.142L42.3019 29H40.0879L36.0379 23.456H36.7039L32.6359 29H30.4399ZM48.6151 29V16.31H53.0071C54.4351 16.31 55.6411 16.556 56.6251 17.048C57.6211 17.54 58.3711 18.26 58.8751 19.208C59.3911 20.144 59.6491 21.29 59.6491 22.646C59.6491 23.99 59.3911 25.136 58.8751 26.084C58.3711 27.032 57.6211 27.758 56.6251 28.262C55.6411 28.754 54.4351 29 53.0071 29H48.6151ZM50.4871 27.434H52.8991C54.5311 27.434 55.7431 27.038 56.5351 26.246C57.3391 25.454 57.7411 24.254 57.7411 22.646C57.7411 21.038 57.3391 19.844 56.5351 19.064C55.7431 18.272 54.5311 17.876 52.8991 17.876H50.4871V27.434ZM66.2174 29.162C64.7534 29.162 63.6014 28.748 62.7614 27.92C61.9214 27.092 61.5014 25.946 61.5014 24.482C61.5014 23.534 61.6814 22.706 62.0414 21.998C62.4134 21.29 62.9234 20.744 63.5714 20.36C64.2314 19.964 64.9934 19.766 65.8574 19.766C66.7094 19.766 67.4234 19.946 67.9994 20.306C68.5754 20.666 69.0134 21.176 69.3134 21.836C69.6134 22.484 69.7634 23.252 69.7634 24.14V24.716H62.9234V23.672H68.5214L68.2154 23.906C68.2154 23.006 68.0114 22.31 67.6034 21.818C67.2074 21.314 66.6314 21.062 65.8754 21.062C65.0354 21.062 64.3874 21.356 63.9314 21.944C63.4754 22.52 63.2474 23.318 63.2474 24.338V24.518C63.2474 25.586 63.5054 26.39 64.0214 26.93C64.5494 27.47 65.2934 27.74 66.2534 27.74C66.7814 27.74 67.2734 27.668 67.7294 27.524C68.1974 27.368 68.6414 27.116 69.0614 26.768L69.6554 28.01C69.2354 28.382 68.7254 28.67 68.1254 28.874C67.5254 29.066 66.8894 29.162 66.2174 29.162ZM74.9636 29.162C74.2076 29.162 73.5116 29.066 72.8756 28.874C72.2396 28.682 71.7116 28.412 71.2916 28.064L71.8496 26.822C72.2936 27.158 72.7856 27.41 73.3256 27.578C73.8656 27.746 74.4176 27.83 74.9816 27.83C75.6416 27.83 76.1396 27.716 76.4756 27.488C76.8116 27.248 76.9796 26.924 76.9796 26.516C76.9796 26.204 76.8716 25.952 76.6556 25.76C76.4516 25.568 76.1096 25.424 75.6296 25.328L73.9016 24.986C73.1336 24.818 72.5516 24.53 72.1556 24.122C71.7596 23.714 71.5616 23.192 71.5616 22.556C71.5616 22.016 71.7056 21.536 71.9936 21.116C72.2936 20.696 72.7136 20.366 73.2536 20.126C73.8056 19.886 74.4476 19.766 75.1796 19.766C75.8516 19.766 76.4756 19.862 77.0516 20.054C77.6276 20.246 78.1076 20.522 78.4916 20.882L77.9156 22.088C77.5436 21.776 77.1236 21.536 76.6556 21.368C76.1876 21.188 75.7136 21.098 75.2336 21.098C74.5616 21.098 74.0636 21.224 73.7396 21.476C73.4156 21.728 73.2536 22.058 73.2536 22.466C73.2536 22.778 73.3496 23.036 73.5416 23.24C73.7456 23.432 74.0636 23.582 74.4956 23.69L76.2236 24.032C77.0396 24.2 77.6516 24.476 78.0596 24.86C78.4676 25.244 78.6716 25.76 78.6716 26.408C78.6716 26.972 78.5156 27.464 78.2036 27.884C77.8916 28.304 77.4596 28.622 76.9076 28.838C76.3556 29.054 75.7076 29.162 74.9636 29.162ZM80.8144 29V19.928H82.6324V29H80.8144ZM80.6704 18.038V16.148H82.7764V18.038H80.6704ZM89.3828 33.032C88.5668 33.032 87.8228 32.936 87.1508 32.744C86.4908 32.552 85.8968 32.264 85.3688 31.88L85.8188 30.548C86.1908 30.8 86.5568 30.998 86.9168 31.142C87.2768 31.298 87.6548 31.412 88.0508 31.484C88.4468 31.556 88.8548 31.592 89.2748 31.592C90.1388 31.592 90.7868 31.37 91.2188 30.926C91.6628 30.494 91.8848 29.864 91.8848 29.036V26.606H92.0648C91.8728 27.278 91.4768 27.812 90.8768 28.208C90.2888 28.592 89.6048 28.784 88.8248 28.784C87.9968 28.784 87.2768 28.604 86.6648 28.244C86.0648 27.872 85.5968 27.35 85.2608 26.678C84.9368 25.994 84.7748 25.19 84.7748 24.266C84.7748 23.342 84.9368 22.544 85.2608 21.872C85.5968 21.2 86.0648 20.684 86.6648 20.324C87.2768 19.952 87.9968 19.766 88.8248 19.766C89.6168 19.766 90.3008 19.964 90.8768 20.36C91.4648 20.744 91.8548 21.272 92.0468 21.944L91.8848 21.8L92.0468 19.928H93.8108C93.7628 20.3 93.7268 20.672 93.7028 21.044C93.6788 21.404 93.6668 21.758 93.6668 22.106V28.82C93.6668 30.188 93.3008 31.232 92.5688 31.952C91.8488 32.672 90.7868 33.032 89.3828 33.032ZM89.2568 27.362C90.0488 27.362 90.6788 27.092 91.1468 26.552C91.6268 26.012 91.8668 25.25 91.8668 24.266C91.8668 23.282 91.6268 22.526 91.1468 21.998C90.6788 21.47 90.0488 21.206 89.2568 21.206C88.4408 21.206 87.7928 21.47 87.3128 21.998C86.8448 22.526 86.6108 23.282 86.6108 24.266C86.6108 25.25 86.8448 26.012 87.3128 26.552C87.7928 27.092 88.4408 27.362 89.2568 27.362ZM96.3183 29V22.106C96.3183 21.758 96.3003 21.404 96.2643 21.044C96.2403 20.672 96.2103 20.3 96.1743 19.928H97.9383L98.1003 21.836H97.8843C98.1603 21.164 98.5863 20.654 99.1623 20.306C99.7383 19.946 100.404 19.766 101.16 19.766C102.228 19.766 103.032 20.06 103.572 20.648C104.124 21.236 104.4 22.148 104.4 23.384V29H102.582V23.492C102.582 22.688 102.42 22.112 102.096 21.764C101.784 21.404 101.304 21.224 100.656 21.224C99.8883 21.224 99.2763 21.464 98.8203 21.944C98.3643 22.412 98.1363 23.048 98.1363 23.852V29H96.3183Z" fill="#6878AC"/>
</svg>
